<svg id="Layer_1" enable-background="new 0 0 128 128" height="512" viewBox="0 0 128 128" width="512" xmlns="http://www.w3.org/2000/svg"><path d="m86.095 43.778c-1.119 0-2.225.059-3.319.155-3.296-17.28-18.51-30.386-36.736-30.386-20.625 0-37.405 16.78-37.405 37.405s16.78 37.405 37.405 37.405c1.119 0 2.225-.059 3.319-.155 3.296 17.28 18.51 30.386 36.736 30.386 20.625 0 37.405-16.78 37.405-37.405s-16.78-37.405-37.405-37.405z" fill="#e6e7e8"/><path d="m45.555 77.003c0-18.668 14.071-34.042 32.185-36.114-2.814-17.282-17.803-30.477-35.88-30.477-20.081 0-36.36 16.279-36.36 36.36s16.279 36.36 36.36 36.36c1.413 0 2.805-.089 4.175-.246-.311-1.916-.48-3.879-.48-5.883z" fill="#ffd7e5"/><path d="m54.851 19.928c-2.224 0-4.026 1.803-4.026 4.026 0 2.224 1.803 4.026 4.026 4.026s4.026-1.803 4.026-4.026c0-2.224-1.803-4.026-4.026-4.026z" fill="#fff"/><path d="m31.543 28.417c0-10.137 4.619-18.355 10.317-18.355-10.137 0-18.355 8.218-18.355 18.355s8.218 18.355 18.355 18.355c-5.698 0-10.317-8.217-10.317-18.355z" fill="#fa759e"/><path d="m51.235 57.499c1.145-1.798 2.438-3.492 3.872-5.056-3.341-3.488-8.035-5.671-13.247-5.671 4.166 0 7.746 4.403 9.375 10.727z" fill="#fa759e"/><circle cx="81.915" cy="77.003" fill="#6dc9f7" r="36.36"/><path d="m81.915 43.778c19.555 0 35.498 15.439 36.32 34.792.022-.52.04-1.042.04-1.568 0-20.081-16.279-36.36-36.36-36.36s-36.36 16.279-36.36 36.36c0 .526.018 1.047.04 1.568.821-19.353 16.764-34.792 36.32-34.792z" fill="#fff"/><path d="m71.598 58.647c0-10.137 4.619-18.355 10.317-18.355-10.137 0-18.355 8.218-18.355 18.355s8.218 18.355 18.355 18.355c-5.698.001-10.317-8.217-10.317-18.355z" fill="#0089ef"/><path d="m81.915 77.003c5.698 0 10.317 8.218 10.317 18.355s-4.619 18.355-10.317 18.355c10.137 0 18.355-8.218 18.355-18.355s-8.218-18.355-18.355-18.355z" fill="#0089ef"/><path d="m107.532 49.809c-.402-.378-1.035-.36-1.413.042-.379.402-.36 1.035.042 1.414 7.166 6.753 11.113 15.894 11.113 25.738 0 19.498-15.862 35.36-35.359 35.36-19.498 0-35.36-15.862-35.36-35.36s15.862-35.36 35.36-35.36c4.968 0 9.771 1.01 14.277 3.001.508.225 1.096-.006 1.319-.51.223-.505-.006-1.096-.511-1.319-4.763-2.104-9.838-3.172-15.086-3.172-1.134 0-2.255.059-3.363.159-3.276-17.279-18.474-30.39-36.691-30.39-20.601 0-37.36 16.76-37.36 37.36 0 20.601 16.76 37.36 37.36 37.36 1.133 0 2.248-.071 3.354-.172 3.271 17.285 18.478 30.402 36.701 30.402 20.6 0 37.359-16.76 37.359-37.36 0-10.4-4.17-20.058-11.742-27.193zm-65.672 32.324c-19.498 0-35.36-15.863-35.36-35.36s15.862-35.36 35.36-35.36c17.191 0 31.541 12.337 34.699 28.62-18.071 2.606-32.004 18.189-32.004 36.971 0 1.689.124 3.35.342 4.98-1.003.087-2.012.149-3.037.149z" fill="#3a2c60"/><path d="m99.765 46.472c1.301.762 2.566 1.617 3.761 2.541.182.141.396.209.61.209.299 0 .595-.133.792-.388.338-.437.258-1.065-.18-1.403-1.261-.976-2.598-1.879-3.972-2.684-.479-.28-1.09-.12-1.369.357-.278.476-.119 1.089.358 1.368z" fill="#3a2c60"/><path d="m98.192 51.427c-2.224 0-4.026 1.803-4.026 4.026 0 2.224 1.803 4.026 4.026 4.026 2.224 0 4.026-1.803 4.026-4.026 0-2.224-1.803-4.026-4.026-4.026z" fill="#fff"/></svg>